<svg width="623" height="521" viewBox="0 0 623 521" fill="none" xmlns="http://www.w3.org/2000/svg">
<path d="M420.183 129.842C388.413 89.4739 335.785 63.835 282.557 40.1139C129.079 -28.2843 12.9879 -15.9648 68.5784 129.842H420.183Z" fill="#3F3D56"/>
<path d="M174.959 328.092C200.533 369.168 230.615 399.025 282.557 399.025C337.131 399.025 385.616 371.192 416.286 328.092H174.959Z" fill="#3F3D56"/>
<path opacity="0.1" d="M37.9826 200.865C43.7906 193.838 50.3482 187.232 58.3516 182.868C66.355 178.504 75.9964 176.568 84.7349 179.163C91.258 181.1 96.8182 185.362 101.964 189.815C112.507 198.939 122.229 209.386 134.664 215.69C147.099 221.995 163.485 223.172 174.047 214.07C182.407 206.867 185.971 194.39 195.954 189.688C205.794 185.054 217.204 190.03 227.19 194.343C240.751 200.199 254.784 204.894 269.139 208.378C278.849 210.734 288.852 212.54 298.8 211.593C308.747 210.645 318.731 206.662 325.219 199.062" fill="black"/>
<path opacity="0.1" d="M180.436 241.485C186.243 234.458 192.801 227.852 200.805 223.488C208.808 219.124 218.449 217.188 227.188 219.783C233.711 221.72 239.271 225.982 244.417 230.436C254.96 239.559 264.682 250.006 277.117 256.31C289.552 262.615 305.938 263.792 316.5 254.69C324.86 247.487 328.424 235.01 338.407 230.308C348.247 225.674 359.657 230.651 369.643 234.963C383.204 240.819 397.237 245.515 411.592 248.998C421.302 251.354 431.305 253.16 441.253 252.213C451.2 251.265 461.184 247.283 467.672 239.682" fill="black"/>
<path d="M42.2259 196.015C48.0338 188.988 54.5914 182.382 62.5949 178.018C70.5983 173.654 80.2397 171.718 88.9782 174.313C95.5013 176.25 101.061 180.512 106.207 184.965C116.75 194.089 126.472 204.536 138.907 210.84C151.343 217.145 167.728 218.321 178.291 209.22C186.65 202.017 190.214 189.54 200.197 184.838C210.038 180.204 221.448 185.18 231.433 189.493C244.994 195.349 259.028 200.044 273.382 203.528C283.093 205.884 293.096 207.69 303.043 206.743C312.99 205.795 322.974 201.812 329.462 194.212" fill="#3F3D56"/>
<path d="M185.891 234.816C191.699 227.789 198.257 221.184 206.26 216.82C214.264 212.455 223.905 210.519 232.644 213.114C239.167 215.051 244.727 219.313 249.873 223.767C260.416 232.891 270.137 243.337 282.573 249.641C295.008 255.946 311.394 257.123 321.956 248.021C330.315 240.818 333.88 228.341 343.862 223.64C353.703 219.005 365.113 223.982 375.099 228.294C388.66 234.151 402.693 238.846 417.048 242.329C426.758 244.685 436.761 246.491 446.708 245.544C456.656 244.596 466.64 240.614 473.127 233.013" fill="#3F3D56"/>
<path opacity="0.1" d="M450.666 186.426H475.704C477.413 176.547 477.413 166.448 475.704 156.569H450.666C453.487 166.322 453.487 176.674 450.666 186.426Z" fill="black"/>
<path d="M454.303 181.576H479.341C481.05 171.697 481.05 161.598 479.341 151.719H454.303C457.124 161.472 457.124 171.824 454.303 181.576Z" fill="#535171"/>
<path opacity="0.1" d="M413.477 203.282H388.439C386.731 193.403 386.731 183.304 388.439 173.425H413.477C410.656 183.178 410.656 193.53 413.477 203.282Z" fill="black"/>
<path d="M417.114 199.644H392.077C390.368 189.765 390.368 179.666 392.077 169.788H417.114C414.293 179.54 414.293 189.892 417.114 199.644Z" fill="#FF6584"/>
<path d="M590.023 471.643L595.271 488.345L579.049 489.776L580.48 471.643H590.023Z" fill="#FFB9B9"/>
<path d="M511.297 484.527V507.433H492.69L497.938 484.527H511.297Z" fill="#FFB9B9"/>
<path d="M577.617 317.988L585.251 390.521C585.251 390.521 594.794 454.464 592.885 464.485C590.977 474.506 593.363 475.938 593.363 475.938H579.049C579.049 475.938 579.526 469.735 576.663 466.871C573.8 464.008 575.232 455.419 575.232 455.419L538.97 344.711L518.454 406.745C518.454 406.745 515.114 474.984 514.637 475.938C514.16 476.892 512.729 489.776 512.729 489.776H495.075C495.075 489.776 497.461 482.141 494.121 479.756C490.781 477.37 487.918 479.278 490.781 474.984C493.644 470.689 494.598 465.44 493.644 463.054C492.69 460.668 492.69 451.124 492.69 451.124C492.69 451.124 494.121 322.283 502.232 317.988C510.343 313.693 577.617 317.988 577.617 317.988Z" fill="#2F2E41"/>
<path d="M506.255 495.293C506.255 495.293 514.413 494.069 514.413 494.477C514.413 494.885 524.204 521.403 514.413 520.995C504.623 520.587 467.503 515.284 469.95 505.492C472.398 495.701 484.635 498.557 484.635 498.557L495.649 492.437L506.255 495.293Z" fill="#2F2E41"/>
<path d="M586.58 486.843C586.58 486.843 578.421 485.619 578.421 486.027C578.421 486.435 568.631 512.954 578.421 512.546C588.211 512.138 625.332 506.834 622.884 497.043C620.437 487.251 608.199 490.107 608.199 490.107L597.186 483.987L586.58 486.843Z" fill="#2F2E41"/>
<path d="M550.359 382.59H520.547C518.513 370.827 518.513 358.803 520.547 347.041H550.359C547 358.652 547 370.978 550.359 382.59Z" fill="#535171"/>
<path d="M538.364 181.67C548.734 181.67 557.141 173.263 557.141 162.891C557.141 152.52 548.734 144.112 538.364 144.112C527.994 144.112 519.588 152.52 519.588 162.891C519.588 173.263 527.994 181.67 538.364 181.67Z" fill="#FFB9B9"/>
<path d="M553.284 160.515C553.284 160.515 556.624 193.918 560.918 196.304C565.212 198.69 527.997 201.076 527.997 201.076C527.997 201.076 537.062 170.536 534.199 167.673C531.337 164.81 553.284 160.515 553.284 160.515Z" fill="#FFB9B9"/>
<path d="M513.206 195.35C513.206 195.35 526.565 182.466 541.833 184.852C557.101 187.238 568.075 190.101 568.075 190.101C568.075 190.101 591.454 202.508 591.931 212.529C592.408 222.55 583.343 260.248 583.343 260.248C583.343 260.248 579.049 321.806 578.572 321.806C578.095 321.806 497.938 320.851 497.938 320.851L512.729 240.683L513.206 195.35Z" fill="#3F3D56"/>
<path d="M516.326 310.176C519.418 311.011 524.747 309.857 530.311 308.034C540.235 304.775 550.899 299.377 550.899 299.377C550.899 299.377 585.251 285.539 595.271 278.381C605.291 271.223 598.611 242.592 598.611 242.592L583.343 247.364L584.297 265.02L546.604 289.357C540.682 289.912 534.834 291.088 529.156 292.864C522.81 294.949 516.646 298.199 514.418 303.19C514.07 303.952 513.823 304.756 513.683 305.581C513.23 308.215 514.298 309.623 516.326 310.176Z" fill="#FFB9B9"/>
<path opacity="0.15" d="M514.418 303.19C515.081 305.662 515.725 308.015 516.326 310.176C519.418 311.011 524.747 309.857 530.311 308.034L529.156 292.864C522.81 294.949 516.646 298.199 514.418 303.19Z" fill="black"/>
<path d="M521.317 233.525L524.18 258.816L528.927 321.219C528.927 321.219 555.193 352.823 540.402 353.777C525.611 354.731 517.5 322.76 517.5 322.76C517.5 322.76 502.709 272.177 503.186 261.679C503.663 251.181 503.186 233.525 503.186 233.525H521.317Z" fill="#FFB9B9"/>
<path d="M517.16 160.796C516.669 160.599 516.213 160.324 515.81 159.982C514.785 158.987 514.957 157.301 515.403 155.944C515.848 154.586 516.498 153.183 516.179 151.79C516.031 151.141 515.677 150.548 515.576 149.89C515.336 148.325 516.584 146.899 517.966 146.127C519.347 145.354 520.936 144.974 522.241 144.079C524.244 142.706 525.349 140.286 527.382 138.959C529.37 137.662 531.895 137.621 534.269 137.624L541.355 137.632C545.059 137.636 549.128 137.773 551.884 140.247C552.723 141 553.387 141.931 554.236 142.672C555.946 144.163 558.253 144.758 560.152 146C561.57 146.948 562.729 148.235 563.524 149.744C564.32 151.253 564.727 152.936 564.708 154.642C564.641 157.787 563.108 160.842 563.507 163.962C563.774 166.055 564.904 168.067 564.607 170.156C564.255 172.633 561.982 174.408 559.652 175.319C557.322 176.231 554.781 176.558 552.514 177.616C550.663 178.48 548.729 179.857 546.779 179.253C545.128 178.741 544.222 176.998 543.631 175.374C542.94 173.475 542.432 171.514 542.114 169.518C541.877 168.025 541.719 166.443 540.843 165.211C540.328 164.541 539.65 164.013 538.874 163.679C538.098 163.344 537.25 163.213 536.409 163.299C532.583 163.635 530.429 170.153 526.91 168.611C525.165 167.847 523.824 165.559 522.427 164.312C520.846 162.898 519.072 161.714 517.16 160.796Z" fill="#2F2E41"/>
<path d="M586.206 208.234C586.206 208.234 595.748 211.574 599.565 224.936C603.382 238.297 601.951 247.364 601.951 247.364L581.912 250.704L586.206 208.234Z" fill="#3F3D56"/>
<path d="M522.748 194.395C522.748 194.395 505.572 190.578 503.186 206.802C501.694 217.716 500.897 228.714 500.801 239.728C500.801 239.728 517.023 232.093 524.18 239.728L522.748 194.395Z" fill="#3F3D56"/>
</svg>
